<svg width="27" height="23" viewBox="0 0 27 23" fill="none" xmlns="http://www.w3.org/2000/svg">
<path d="M6.88563 17.5714L6.81188 18.1362L6.28738 22.1525C6.28736 22.1526 6.28735 22.1527 6.28733 22.1528C6.2797 22.2125 6.29747 22.2812 6.36163 22.3494C6.42763 22.4196 6.54013 22.4828 6.69094 22.497L6.88563 17.5714ZM6.88563 17.5714H6.31609M6.88563 17.5714H6.31609M6.31609 17.5714H2.89286C1.49313 17.5714 0.5 16.6198 0.5 15.6071V2.46428C0.5 1.45162 1.49313 0.5 2.89286 0.5H24.1071C25.5069 0.5 26.5 1.45162 26.5 2.46428V15.6071C26.5 16.6198 25.5069 17.5714 24.1071 17.5714H13.5492H13.3796L13.245 17.6746L7.09095 22.3921L7.09094 22.3921M6.31609 17.5714L7.09094 22.3921M7.09094 22.3921C6.9936 22.4667 6.84781 22.5118 6.69098 22.497L7.09094 22.3921Z" stroke="#888888"/>
</svg>
