<svg width="23" height="23" viewBox="0 0 23 23" fill="none" xmlns="http://www.w3.org/2000/svg">
<path d="M21.228 14.0001C20.9116 14.0001 20.6552 14.2587 20.6552 14.5777V19.7061C20.6541 20.6628 19.8855 21.438 18.9367 21.4389H2.86408C1.91536 21.438 1.14675 20.6628 1.14563 19.7061V4.65458C1.14675 3.69816 1.91536 2.92292 2.86408 2.92179H7.95007C8.26646 2.92179 8.52289 2.66323 8.52289 2.3442C8.52289 2.02539 8.26646 1.7666 7.95007 1.7666H2.86408C1.28302 1.76841 0.00179005 3.06033 0 4.65458V19.7064C0.00179005 21.3006 1.28302 22.5925 2.86408 22.5944H18.9367C20.5178 22.5925 21.799 21.3006 21.8008 19.7064V14.5777C21.8008 14.2587 21.5444 14.0001 21.228 14.0001V14.0001Z" fill="#888888"/>
<path d="M21.5739 0.76131C20.5672 -0.25377 18.9352 -0.25377 17.9285 0.76131L7.70906 11.066C7.63902 11.1366 7.58845 11.2241 7.56205 11.3203L6.21817 16.2125C6.1629 16.413 6.21906 16.6278 6.36495 16.7752C6.51107 16.9223 6.72408 16.9789 6.923 16.9234L11.7747 15.5681C11.87 15.5415 11.9569 15.4905 12.0269 15.4198L22.2461 5.11494C23.2512 4.09918 23.2512 2.45484 22.2461 1.43908L21.5739 0.76131ZM8.95717 11.4414L17.321 3.00762L20.0184 5.72751L11.6543 14.1613L8.95717 11.4414ZM8.41837 12.5316L10.5734 14.7048L7.59248 15.5376L8.41837 12.5316ZM21.4361 4.29818L20.8286 4.91075L18.131 2.19063L18.7387 1.57807C19.2979 1.01423 20.2045 1.01423 20.7637 1.57807L21.4361 2.25584C21.9944 2.82035 21.9944 3.7339 21.4361 4.29818V4.29818Z" fill="#888888"/>
</svg>
