<svg width="41" height="44" fill="none" xmlns="http://www.w3.org/2000/svg"><path d="M36.775 20.5945H4.135C1.8547 20.5945 0 22.4493 0 24.7294v14.2452c0 2.2798 1.8548 4.1346 4.135 4.1346h32.64c2.2802 0 4.135-1.8548 4.135-4.1346V24.7294c0-2.2801-1.8548-4.1349-4.135-4.1349zm1.6585 18.3801c0 .9142-.7439 1.6581-1.6585 1.6581H4.135c-.9146 0-1.6585-.7439-1.6585-1.6581V24.7294c0-.9145.744-1.6584 1.6584-1.6584H36.775c.9146 0 1.6585.7439 1.6585 1.6584v14.2452zM20.4584 13.261c.9838 0 1.9676-.3737 2.7167-1.1215.7265-.7249 1.1264-1.6891 1.1264-2.7149 0-1.0257-.3999-1.9899-1.1264-2.7148-1.4981-1.4952-3.9356-1.4952-5.4338 0-.7265.725-1.1264 1.689-1.1264 2.7148 0 1.0258.3999 1.99 1.1264 2.7149.7491.7478 1.7329 1.1215 2.7171 1.1215zm-.9677-4.7986a1.3653 1.3653 0 01.9677-.3992c.3502 0 .7004.1332.967.3992.2577.257.3996.5988.3996.9622 0 .3635-.1419.705-.3992.9623-.5337.5324-1.4015.532-1.9351 0a1.3503 1.3503 0 01-.3992-.9623c0-.3634.1418-.7049.3992-.9622zM24.9829 14.8392c.2418.2424.5592.3637.8765.3637.3166 0 .633-.1206.8748-.3618 1.4495-1.4469 2.2479-3.3704 2.2479-5.4168 0-2.0463-.7984-3.9701-2.2479-5.4167-.484-.483-1.2682-.4824-1.7513.0016-.4831.484-.4821 1.2683.0019 1.7513.9806.9787 1.5208 2.2798 1.5208 3.6638 0 1.3837-.5402 2.6852-1.5208 3.6639-.484.483-.485 1.2669-.0019 1.751zM14.1758 14.8411c.2419.2412.5582.3618.8749.3618.3173 0 .6346-.1212.8764-.3637.4831-.484.4821-1.2679-.0019-1.751-.9806-.979-1.5208-2.2801-1.5208-3.6641 0-1.3837.5402-2.6849 1.5208-3.6639.484-.483.485-1.267.0019-1.751-.483-.4843-1.2673-.485-1.7513-.0019-1.4495 1.447-2.2476 3.3704-2.2479 5.4168 0 2.0463.7984 3.9701 2.2479 5.417z" fill="#fff"/><path d="M10.7639 35.6776h-3.324v-8.89c0-.684-.5543-1.2383-1.2383-1.2383-.684 0-1.2382.5543-1.2382 1.2383v10.1282c0 .684.5543 1.2383 1.2382 1.2383h4.5623c.6836 0 1.2382-.5543 1.2382-1.2383 0-.6836-.5546-1.2382-1.2382-1.2382zM14.6001 25.5493c-.6839 0-1.2382.5543-1.2382 1.2383v10.1282c0 .684.5543 1.2383 1.2382 1.2383.6837 0 1.2383-.5543 1.2383-1.2383V26.7876c0-.684-.5546-1.2383-1.2383-1.2383zM25.4292 25.6025c-.6543-.1976-1.3457.1729-1.5433.8275l-1.8723 6.2019-1.8725-6.2019c-.1977-.655-.8887-1.0251-1.5433-.8275-.6546.1977-1.0251.8887-.8275 1.5433l3.058 10.1283.0009.0029c.337 1.0783 1.9971 1.1438 2.3689 0l.0009-.0029 3.0579-10.1283c.1977-.6549-.1731-1.3456-.8277-1.5433zM34.7083 28.0258c.684 0 1.2383-.5543 1.2383-1.2382 0-.684-.5543-1.2383-1.2383-1.2383h-5.586c-.684 0-1.2383.5543-1.2383 1.2383v10.1282c0 .684.5543 1.2383 1.2383 1.2383h5.4193c.684 0 1.2383-.5543 1.2383-1.2383 0-.6836-.5543-1.2382-1.2383-1.2382h-4.181v-3.2253h3.5138c.684 0 1.2383-.5543 1.2383-1.2383 0-.6839-.5543-1.2382-1.2383-1.2382h-3.5138v-1.95h4.3477z" fill="#FF1850"/><path d="M30.8195 9.4248c0 2.761-1.0774 5.3571-3.0338 7.3097-.484.483-.4849 1.2672-.0019 1.7513a1.236 1.236 0 00.8765.3634c.3166 0 .633-.1206.8748-.3618 2.4253-2.4204 3.7609-5.6389 3.7609-9.0626 0-3.4232-1.3356-6.642-3.7609-9.0625-.484-.483-1.2679-.4824-1.7513.0016-.483.484-.4821 1.2683.0019 1.7514 1.9564 1.9525 3.0338 4.5483 3.0338 7.3095zM12.2498 18.849a1.235 1.235 0 00.8764-.3634c.4831-.4841.4824-1.2683-.0019-1.7513-1.9564-1.9526-3.0338-4.5487-3.0338-7.31 0-2.761 1.0774-5.357 3.0338-7.3096.484-.483.485-1.2673.0019-1.751-.4834-.4843-1.2673-.485-1.7513-.0019C8.9497 2.7825 7.614 6.001 7.614 9.4243c0 3.4236 1.3357 6.6421 3.7609 9.0629.2419.2412.5582.3618.8749.3618z" fill="#fff"/></svg>